<svg width="20" height="20" viewBox="0 0 28 22" fill="none" xmlns="http://www.w3.org/2000/svg">
<path d="M20.2222 16.5V13.2H9.33333V8.8H20.2222V5.5L28 11L20.2222 16.5ZM17.1111 0C17.9362 0 18.7276 0.231785 19.311 0.644365C19.8944 1.05695 20.2222 1.61652 20.2222 2.2V4.4H17.1111V2.2H3.11111V19.8H17.1111V17.6H20.2222V19.8C20.2222 20.3835 19.8944 20.9431 19.311 21.3556C18.7276 21.7682 17.9362 22 17.1111 22H3.11111C2.28599 22 1.49467 21.7682 0.911223 21.3556C0.327777 20.9431 0 20.3835 0 19.8V2.2C0 1.61652 0.327777 1.05695 0.911223 0.644365C1.49467 0.231785 2.28599 0 3.11111 0H17.1111Z" fill="black"/>
</svg>
