<svg width="24" height="21" viewBox="0 0 24 21" fill="none" xmlns="http://www.w3.org/2000/svg">
<path d="M16 0.2C15 0.2 14.2 1 14.2 2C14.2 3 15 3.8 16 3.8C17 3.8 17.8 3 17.8 2C17.8 1 17 0.2 16 0.2ZM12.4 3.1C11.93 3.1 11.5 3.29 11.2 3.6L7.5 7.29C7.19 7.6 7 8 7 8.5C7 9.13 7.33 9.66 7.85 9.97L11.2 12V17H13V10.5L10.75 8.85L13.07 6.5L14.8 9H19V7.2H15.8L13.86 3.93C13.57 3.43 13 3.1 12.4 3.1ZM10 2H3C2.45 2 2 1.55 2 1C2 0.45 2.45 0 3 0H12.79C12.58 0.34 12.41 0.71 12.32 1.11C11.46 1.13 10.65 1.45 10 2ZM5 11C2.24 11 0 13.24 0 16C0 18.76 2.24 21 5 21C7.76 21 10 18.76 10 16C10 13.24 7.76 11 5 11ZM5 19.5C3.07 19.5 1.5 17.93 1.5 16C1.5 14.07 3.07 12.5 5 12.5C6.93 12.5 8.5 14.07 8.5 16C8.5 17.93 6.93 19.5 5 19.5ZM19 11C16.24 11 14 13.24 14 16C14 18.76 16.24 21 19 21C21.76 21 24 18.76 24 16C24 13.24 21.76 11 19 11ZM19 19.5C17.07 19.5 15.5 17.93 15.5 16C15.5 14.07 17.07 12.5 19 12.5C20.93 12.5 22.5 14.07 22.5 16C22.5 17.93 20.93 19.5 19 19.5ZM5.32 10H1C0.448 10 0 9.55 0 9C0 8.45 0.448 8 1 8H5.05C5.03 8.16 5 8.33 5 8.5C5 9.03 5.12 9.54 5.32 10ZM6 6H2C1.45 6 1 5.55 1 5C1 4.45 1.45 4 2 4H7.97L6.09 5.87C6.05 5.91 6 5.96 6 6Z" fill="white"/>
</svg>
